<?xml version="1.0" encoding="UTF-8" standalone="no"?>
<!DOCTYPE svg PUBLIC "-//W3C//DTD SVG 1.1//EN"
 "http://www.w3.org/Graphics/SVG/1.1/DTD/svg11.dtd">
<!-- Generated by graphviz version 7.1.0 (20230122.1345)
 -->
<!-- Title: snakemake_dag Pages: 1 -->
<svg width="256pt" height="476pt"
 viewBox="0.00 0.00 255.50 476.00" xmlns="http://www.w3.org/2000/svg" xmlns:xlink="http://www.w3.org/1999/xlink">
<g id="graph0" class="graph" transform="scale(1 1) rotate(0) translate(4 472)">
<title>snakemake_dag</title>
<polygon fill="white" stroke="none" points="-4,4 -4,-472 251.5,-472 251.5,4 -4,4"/>
<!-- 0 -->
<g id="node1" class="node">
<title>0</title>
<path fill="none" stroke="#56c9d8" stroke-width="2" d="M135.5,-36C135.5,-36 105.5,-36 105.5,-36 99.5,-36 93.5,-30 93.5,-24 93.5,-24 93.5,-12 93.5,-12 93.5,-6 99.5,0 105.5,0 105.5,0 135.5,0 135.5,0 141.5,0 147.5,-6 147.5,-12 147.5,-12 147.5,-24 147.5,-24 147.5,-30 141.5,-36 135.5,-36"/>
<text text-anchor="middle" x="120.5" y="-15.5" font-family="sans" font-size="10.00">all</text>
</g>
<!-- 1 -->
<g id="node2" class="node">
<title>1</title>
<path fill="none" stroke="#56d8a2" stroke-width="2" d="M53.5,-108C53.5,-108 23.5,-108 23.5,-108 17.5,-108 11.5,-102 11.5,-96 11.5,-96 11.5,-84 11.5,-84 11.5,-78 17.5,-72 23.5,-72 23.5,-72 53.5,-72 53.5,-72 59.5,-72 65.5,-78 65.5,-84 65.5,-84 65.5,-96 65.5,-96 65.5,-102 59.5,-108 53.5,-108"/>
<text text-anchor="middle" x="38.5" y="-87.5" font-family="sans" font-size="10.00">multiqc</text>
</g>
<!-- 1&#45;&gt;0 -->
<g id="edge3" class="edge">
<title>1&#45;&gt;0</title>
<path fill="none" stroke="grey" stroke-width="2" d="M59.19,-71.34C68.44,-63.44 79.54,-53.96 89.74,-45.26"/>
<polygon fill="grey" stroke="grey" stroke-width="2" points="91.89,-48.02 97.23,-38.87 87.35,-42.7 91.89,-48.02"/>
</g>
<!-- 2 -->
<g id="node3" class="node">
<title>2</title>
<path fill="none" stroke="#d85656" stroke-width="2" d="M53.5,-180C53.5,-180 23.5,-180 23.5,-180 17.5,-180 11.5,-174 11.5,-168 11.5,-168 11.5,-156 11.5,-156 11.5,-150 17.5,-144 23.5,-144 23.5,-144 53.5,-144 53.5,-144 59.5,-144 65.5,-150 65.5,-156 65.5,-156 65.5,-168 65.5,-168 65.5,-174 59.5,-180 53.5,-180"/>
<text text-anchor="middle" x="38.5" y="-159.5" font-family="sans" font-size="10.00">fastqc</text>
</g>
<!-- 2&#45;&gt;1 -->
<g id="edge5" class="edge">
<title>2&#45;&gt;1</title>
<path fill="none" stroke="grey" stroke-width="2" d="M38.5,-143.34C38.5,-136.75 38.5,-129.08 38.5,-121.67"/>
<polygon fill="grey" stroke="grey" stroke-width="2" points="42,-121.93 38.5,-111.93 35,-121.93 42,-121.93"/>
</g>
<!-- 3 -->
<g id="node4" class="node">
<title>3</title>
<path fill="none" stroke="#59d856" stroke-width="2" d="M177.5,-180C177.5,-180 119.5,-180 119.5,-180 113.5,-180 107.5,-174 107.5,-168 107.5,-168 107.5,-156 107.5,-156 107.5,-150 113.5,-144 119.5,-144 119.5,-144 177.5,-144 177.5,-144 183.5,-144 189.5,-150 189.5,-156 189.5,-156 189.5,-168 189.5,-168 189.5,-174 183.5,-180 177.5,-180"/>
<text text-anchor="middle" x="148.5" y="-159.5" font-family="sans" font-size="10.00">mergeCounts</text>
</g>
<!-- 3&#45;&gt;0 -->
<g id="edge2" class="edge">
<title>3&#45;&gt;0</title>
<path fill="none" stroke="grey" stroke-width="2" d="M132.51,-143.3C124.85,-133.62 116.49,-120.97 112.5,-108 106.68,-89.07 108.65,-66.89 112.1,-49.4"/>
<polygon fill="grey" stroke="grey" stroke-width="2" points="115.48,-50.29 114.3,-39.76 108.66,-48.73 115.48,-50.29"/>
</g>
<!-- 11 -->
<g id="node12" class="node">
<title>11</title>
<path fill="none" stroke="#d87d56" stroke-width="2" d="M163.5,-108C163.5,-108 133.5,-108 133.5,-108 127.5,-108 121.5,-102 121.5,-96 121.5,-96 121.5,-84 121.5,-84 121.5,-78 127.5,-72 133.5,-72 133.5,-72 163.5,-72 163.5,-72 169.5,-72 175.5,-78 175.5,-84 175.5,-84 175.5,-96 175.5,-96 175.5,-102 169.5,-108 163.5,-108"/>
<text text-anchor="middle" x="148.5" y="-87.5" font-family="sans" font-size="10.00">pca</text>
</g>
<!-- 3&#45;&gt;11 -->
<g id="edge13" class="edge">
<title>3&#45;&gt;11</title>
<path fill="none" stroke="grey" stroke-width="2" d="M148.5,-143.34C148.5,-136.75 148.5,-129.08 148.5,-121.67"/>
<polygon fill="grey" stroke="grey" stroke-width="2" points="152,-121.93 148.5,-111.93 145,-121.93 152,-121.93"/>
</g>
<!-- 12 -->
<g id="node13" class="node">
<title>12</title>
<path fill="none" stroke="#78d856" stroke-width="2" d="M235.5,-108C235.5,-108 205.5,-108 205.5,-108 199.5,-108 193.5,-102 193.5,-96 193.5,-96 193.5,-84 193.5,-84 193.5,-78 199.5,-72 205.5,-72 205.5,-72 235.5,-72 235.5,-72 241.5,-72 247.5,-78 247.5,-84 247.5,-84 247.5,-96 247.5,-96 247.5,-102 241.5,-108 235.5,-108"/>
<text text-anchor="middle" x="220.5" y="-87.5" font-family="sans" font-size="10.00">boxplot</text>
</g>
<!-- 3&#45;&gt;12 -->
<g id="edge14" class="edge">
<title>3&#45;&gt;12</title>
<path fill="none" stroke="grey" stroke-width="2" d="M166.67,-143.34C174.62,-135.6 184.13,-126.36 192.93,-117.81"/>
<polygon fill="grey" stroke="grey" stroke-width="2" points="195.19,-120.49 199.92,-111.01 190.31,-115.47 195.19,-120.49"/>
</g>
<!-- 4 -->
<g id="node5" class="node">
<title>4</title>
<path fill="none" stroke="#c6d856" stroke-width="2" d="M182,-252C182,-252 115,-252 115,-252 109,-252 103,-246 103,-240 103,-240 103,-228 103,-228 103,-222 109,-216 115,-216 115,-216 182,-216 182,-216 188,-216 194,-222 194,-228 194,-228 194,-240 194,-240 194,-246 188,-252 182,-252"/>
<text text-anchor="middle" x="148.5" y="-231.5" font-family="sans" font-size="10.00">featuresCounts</text>
</g>
<!-- 4&#45;&gt;3 -->
<g id="edge6" class="edge">
<title>4&#45;&gt;3</title>
<path fill="none" stroke="grey" stroke-width="2" d="M148.5,-215.34C148.5,-208.75 148.5,-201.08 148.5,-193.67"/>
<polygon fill="grey" stroke="grey" stroke-width="2" points="152,-193.93 148.5,-183.93 145,-193.93 152,-193.93"/>
</g>
<!-- 5 -->
<g id="node6" class="node">
<title>5</title>
<path fill="none" stroke="#567bd8" stroke-width="2" d="M116.5,-324C116.5,-324 86.5,-324 86.5,-324 80.5,-324 74.5,-318 74.5,-312 74.5,-312 74.5,-300 74.5,-300 74.5,-294 80.5,-288 86.5,-288 86.5,-288 116.5,-288 116.5,-288 122.5,-288 128.5,-294 128.5,-300 128.5,-300 128.5,-312 128.5,-312 128.5,-318 122.5,-324 116.5,-324"/>
<text text-anchor="middle" x="101.5" y="-303.5" font-family="sans" font-size="10.00">hisat2</text>
</g>
<!-- 5&#45;&gt;4 -->
<g id="edge8" class="edge">
<title>5&#45;&gt;4</title>
<path fill="none" stroke="grey" stroke-width="2" d="M113.36,-287.34C118.22,-280.1 123.97,-271.53 129.4,-263.45"/>
<polygon fill="grey" stroke="grey" stroke-width="2" points="132.12,-265.67 134.79,-255.41 126.31,-261.77 132.12,-265.67"/>
</g>
<!-- 6 -->
<g id="node7" class="node">
<title>6</title>
<path fill="none" stroke="#d8a456" stroke-width="2" d="M61.5,-396C61.5,-396 31.5,-396 31.5,-396 25.5,-396 19.5,-390 19.5,-384 19.5,-384 19.5,-372 19.5,-372 19.5,-366 25.5,-360 31.5,-360 31.5,-360 61.5,-360 61.5,-360 67.5,-360 73.5,-366 73.5,-372 73.5,-372 73.5,-384 73.5,-384 73.5,-390 67.5,-396 61.5,-396"/>
<text text-anchor="middle" x="46.5" y="-375.5" font-family="sans" font-size="10.00">rename</text>
</g>
<!-- 6&#45;&gt;5 -->
<g id="edge9" class="edge">
<title>6&#45;&gt;5</title>
<path fill="none" stroke="grey" stroke-width="2" d="M60.38,-359.34C66.2,-351.93 73.1,-343.14 79.58,-334.9"/>
<polygon fill="grey" stroke="grey" stroke-width="2" points="82.14,-337.31 85.56,-327.28 76.63,-332.98 82.14,-337.31"/>
</g>
<!-- 7 -->
<g id="node8" class="node">
<title>7</title>
<path fill="none" stroke="#9fd856" stroke-width="2" d="M61,-468C61,-468 12,-468 12,-468 6,-468 0,-462 0,-456 0,-456 0,-444 0,-444 0,-438 6,-432 12,-432 12,-432 61,-432 61,-432 67,-432 73,-438 73,-444 73,-444 73,-456 73,-456 73,-462 67,-468 61,-468"/>
<text text-anchor="middle" x="36.5" y="-447.5" font-family="sans" font-size="10.00">trim_galore</text>
</g>
<!-- 7&#45;&gt;6 -->
<g id="edge11" class="edge">
<title>7&#45;&gt;6</title>
<path fill="none" stroke="grey" stroke-width="2" d="M39.02,-431.34C39.96,-424.75 41.06,-417.08 42.12,-409.67"/>
<polygon fill="grey" stroke="grey" stroke-width="2" points="45.57,-410.29 43.51,-399.9 38.64,-409.3 45.57,-410.29"/>
</g>
<!-- 8 -->
<g id="node9" class="node">
<title>8</title>
<path fill="none" stroke="#56d8c9" stroke-width="2" d="M216,-396C216,-396 109,-396 109,-396 103,-396 97,-390 97,-384 97,-384 97,-372 97,-372 97,-366 103,-360 109,-360 109,-360 216,-360 216,-360 222,-360 228,-366 228,-372 228,-372 228,-384 228,-384 228,-390 222,-396 216,-396"/>
<text text-anchor="middle" x="162.5" y="-375.5" font-family="sans" font-size="10.00">hisat2_genecode_index</text>
</g>
<!-- 8&#45;&gt;5 -->
<g id="edge10" class="edge">
<title>8&#45;&gt;5</title>
<path fill="none" stroke="grey" stroke-width="2" d="M147.11,-359.34C140.58,-351.85 132.83,-342.95 125.58,-334.63"/>
<polygon fill="grey" stroke="grey" stroke-width="2" points="128.3,-332.42 119.09,-327.18 123.02,-337.02 128.3,-332.42"/>
</g>
<!-- 9 -->
<g id="node10" class="node">
<title>9</title>
<path fill="none" stroke="#56d87b" stroke-width="2" d="M233.5,-468C233.5,-468 103.5,-468 103.5,-468 97.5,-468 91.5,-462 91.5,-456 91.5,-456 91.5,-444 91.5,-444 91.5,-438 97.5,-432 103.5,-432 103.5,-432 233.5,-432 233.5,-432 239.5,-432 245.5,-438 245.5,-444 245.5,-444 245.5,-456 245.5,-456 245.5,-462 239.5,-468 233.5,-468"/>
<text text-anchor="middle" x="168.5" y="-447.5" font-family="sans" font-size="10.00">get_gencode_genome_fasta</text>
</g>
<!-- 9&#45;&gt;8 -->
<g id="edge12" class="edge">
<title>9&#45;&gt;8</title>
<path fill="none" stroke="grey" stroke-width="2" d="M166.99,-431.34C166.42,-424.75 165.76,-417.08 165.13,-409.67"/>
<polygon fill="grey" stroke="grey" stroke-width="2" points="168.63,-409.58 164.29,-399.92 161.66,-410.18 168.63,-409.58"/>
</g>
<!-- 10 -->
<g id="node11" class="node">
<title>10</title>
<path fill="none" stroke="#56a2d8" stroke-width="2" d="M232.5,-324C232.5,-324 158.5,-324 158.5,-324 152.5,-324 146.5,-318 146.5,-312 146.5,-312 146.5,-300 146.5,-300 146.5,-294 152.5,-288 158.5,-288 158.5,-288 232.5,-288 232.5,-288 238.5,-288 244.5,-294 244.5,-300 244.5,-300 244.5,-312 244.5,-312 244.5,-318 238.5,-324 232.5,-324"/>
<text text-anchor="middle" x="195.5" y="-303.5" font-family="sans" font-size="10.00">get_gencode_gtf</text>
</g>
<!-- 10&#45;&gt;4 -->
<g id="edge7" class="edge">
<title>10&#45;&gt;4</title>
<path fill="none" stroke="grey" stroke-width="2" d="M183.64,-287.34C178.78,-280.1 173.03,-271.53 167.6,-263.45"/>
<polygon fill="grey" stroke="grey" stroke-width="2" points="170.69,-261.77 162.21,-255.41 164.88,-265.67 170.69,-261.77"/>
</g>
<!-- 11&#45;&gt;0 -->
<g id="edge4" class="edge">
<title>11&#45;&gt;0</title>
<path fill="none" stroke="grey" stroke-width="2" d="M141.43,-71.34C138.7,-64.51 135.5,-56.5 132.43,-48.83"/>
<polygon fill="grey" stroke="grey" stroke-width="2" points="135.75,-47.7 128.78,-39.71 129.25,-50.3 135.75,-47.7"/>
</g>
<!-- 12&#45;&gt;0 -->
<g id="edge1" class="edge">
<title>12&#45;&gt;0</title>
<path fill="none" stroke="grey" stroke-width="2" d="M195.01,-71.15C183.25,-62.93 169.1,-53.02 156.3,-44.06"/>
<polygon fill="grey" stroke="grey" stroke-width="2" points="158.63,-41.42 148.43,-38.55 154.61,-47.15 158.63,-41.42"/>
</g>
</g>
</svg>
